<?xml version="1.0" standalone="no"?>
<!DOCTYPE svg PUBLIC "-//W3C//DTD SVG 20010904//EN"
 "http://www.w3.org/TR/2001/REC-SVG-20010904/DTD/svg10.dtd">
<svg version="1.0" xmlns="http://www.w3.org/2000/svg"
 width="347.000000pt" height="621.000000pt" viewBox="0 0 347.000000 621.000000"
 preserveAspectRatio="xMidYMid meet">

<g transform="translate(0.000000,621.000000) scale(0.100000,-0.100000)"
fill="#000000" stroke="none">
<path d="M1601 6189 c-173 -21 -373 -95 -512 -190 -82 -55 -217 -185 -280
-269 -98 -130 -180 -322 -210 -490 -19 -107 -16 -307 5 -408 50 -238 152 -429
316 -592 355 -354 876 -440 1323 -219 153 76 304 201 408 338 139 185 229 452
229 682 0 554 -390 1030 -930 1133 -102 20 -259 27 -349 15z"/>
<path d="M968 3820 c-491 -41 -811 -248 -917 -593 -39 -128 -42 -241 -39
-1387 3 -852 6 -1103 16 -1133 16 -45 64 -102 104 -123 16 -8 75 -31 130 -50
244 -85 344 -172 449 -389 27 -55 49 -106 49 -112 0 -8 -13 -13 -30 -13 -16 0
-30 -4 -30 -10 0 -14 2136 -14 2145 0 4 6 -7 10 -25 10 -30 0 -32 2 -25 28 13
56 107 229 158 291 60 75 158 145 249 180 182 69 213 92 245 171 17 42 18 116
21 1155 2 730 -1 1144 -8 1208 -20 194 -90 339 -225 472 -190 187 -476 290
-830 298 -127 2 -131 1 -245 -92 -133 -109 -234 -144 -420 -144 -63 0 -137 5
-165 12 -74 18 -161 64 -240 127 -127 101 -163 110 -367 94z"/>
</g>
</svg>
